<?xml version="1.0" encoding="UTF-8" ?>
<svg xmlns="http://www.w3.org/2000/svg" version="1.1" lang="en" width="2110" height="515">
  <rect x="0" y="0" width="2110" height="515" fill="white"></rect>
  <text x="15" y="130" style="font-family: 'Courier'; font-weight: bold; font-style: normal">&quot;[&quot;[9](1,1-1)</text>
  <line x1="1060" y1="105" x2="80" y2="120" stroke="black"></line>
  <text x="155" y="235" style="font-family: 'Courier'; font-weight: bold; font-style: normal">&quot;42&quot;[15](1,2-3)</text>
  <line x1="230" y1="210" x2="230" y2="225" stroke="black"></line>
  <text x="200" y="200" style="font-family: 'Courier'; font-style: normal">Number</text>
  <line x1="230" y1="175" x2="230" y2="190" stroke="black"></line>
  <text x="205" y="165" style="font-family: 'Courier'; font-style: normal">Value</text>
  <line x1="1130" y1="140" x2="230" y2="155" stroke="black"></line>
  <text x="315" y="235" style="font-family: 'Courier'; font-weight: bold; font-style: normal">&quot;,&quot;[7](1,4-4)</text>
  <line x1="1120" y1="210" x2="380" y2="225" stroke="black"></line>
  <text x="450" y="305" style="font-family: 'Courier'; font-weight: bold; font-style: normal">&quot;&quot;Hello!&quot;&quot;[14](1,6-13)</text>
  <line x1="560" y1="280" x2="560" y2="295" stroke="black"></line>
  <text x="530" y="270" style="font-family: 'Courier'; font-style: normal">String</text>
  <line x1="560" y1="245" x2="560" y2="260" stroke="black"></line>
  <text x="535" y="235" style="font-family: 'Courier'; font-style: normal">Value</text>
  <line x1="1120" y1="210" x2="560" y2="225" stroke="black"></line>
  <text x="685" y="305" style="font-family: 'Courier'; font-weight: bold; font-style: normal">&quot;,&quot;[7](1,14-14)</text>
  <line x1="1310" y1="280" x2="760" y2="295" stroke="black"></line>
  <text x="840" y="375" style="font-family: 'Courier'; font-weight: bold; font-style: normal">&quot;13.45&quot;[15](1,16-20)</text>
  <line x1="940" y1="350" x2="940" y2="365" stroke="black"></line>
  <text x="910" y="340" style="font-family: 'Courier'; font-style: normal">Number</text>
  <line x1="940" y1="315" x2="940" y2="330" stroke="black"></line>
  <text x="915" y="305" style="font-family: 'Courier'; font-style: normal">Value</text>
  <line x1="1310" y1="280" x2="940" y2="295" stroke="black"></line>
  <text x="1055" y="375" style="font-family: 'Courier'; font-weight: bold; font-style: normal">&quot;,&quot;[7](1,21-21)</text>
  <line x1="1490" y1="350" x2="1130" y2="365" stroke="black"></line>
  <text x="1215" y="410" style="font-family: 'Courier'; font-weight: bold; font-style: normal">&quot;null&quot;[13](1,23-26)</text>
  <line x1="1310" y1="385" x2="1310" y2="400" stroke="black"></line>
  <text x="1285" y="375" style="font-family: 'Courier'; font-style: normal">Value</text>
  <line x1="1490" y1="350" x2="1310" y2="365" stroke="black"></line>
  <text x="1415" y="445" style="font-family: 'Courier'; font-weight: bold; font-style: normal">&quot;,&quot;[7](1,27-27)</text>
  <line x1="1670" y1="420" x2="1490" y2="435" stroke="black"></line>
  <text x="1570" y="480" style="font-family: 'Courier'; font-weight: bold; font-style: normal">&quot;false&quot;[12](1,29-33)</text>
  <line x1="1670" y1="455" x2="1670" y2="470" stroke="black"></line>
  <text x="1645" y="445" style="font-family: 'Courier'; font-style: normal">Value</text>
  <line x1="1670" y1="420" x2="1670" y2="435" stroke="black"></line>
  <text x="1785" y="445" style="font-family: 'Courier'; font-style: normal">ArrayRestSuffix</text>
  <line x1="1670" y1="420" x2="1860" y2="435" stroke="black"></line>
  <text x="1625" y="410" style="font-family: 'Courier'; font-style: normal">ArrayRest</text>
  <line x1="1670" y1="385" x2="1670" y2="400" stroke="black"></line>
  <text x="1595" y="375" style="font-family: 'Courier'; font-style: normal">ArrayRestSuffix</text>
  <line x1="1490" y1="350" x2="1670" y2="365" stroke="black"></line>
  <text x="1445" y="340" style="font-family: 'Courier'; font-style: normal">ArrayRest</text>
  <line x1="1490" y1="315" x2="1490" y2="330" stroke="black"></line>
  <text x="1415" y="305" style="font-family: 'Courier'; font-style: normal">ArrayRestSuffix</text>
  <line x1="1310" y1="280" x2="1490" y2="295" stroke="black"></line>
  <text x="1265" y="270" style="font-family: 'Courier'; font-style: normal">ArrayRest</text>
  <line x1="1310" y1="245" x2="1310" y2="260" stroke="black"></line>
  <text x="1235" y="235" style="font-family: 'Courier'; font-style: normal">ArrayRestSuffix</text>
  <line x1="1120" y1="210" x2="1310" y2="225" stroke="black"></line>
  <text x="1075" y="200" style="font-family: 'Courier'; font-style: normal">ArrayRest</text>
  <line x1="1210" y1="175" x2="1120" y2="190" stroke="black"></line>
  <text x="1940" y="200" style="font-family: 'Courier'; font-weight: bold; font-style: normal">&quot;]&quot;[10](1,34-34)</text>
  <line x1="1210" y1="175" x2="2020" y2="190" stroke="black"></line>
  <text x="1155" y="165" style="font-family: 'Courier'; font-style: normal">ArraySuffix</text>
  <line x1="1130" y1="140" x2="1210" y2="155" stroke="black"></line>
  <text x="1070" y="130" style="font-family: 'Courier'; font-style: normal">ArraySuffix1</text>
  <line x1="1060" y1="105" x2="1130" y2="120" stroke="black"></line>
  <text x="1035" y="95" style="font-family: 'Courier'; font-style: normal">Array</text>
  <line x1="1060" y1="70" x2="1060" y2="85" stroke="black"></line>
  <text x="1035" y="60" style="font-family: 'Courier'; font-style: normal">Value</text>
  <line x1="1060" y1="35" x2="1060" y2="50" stroke="black"></line>
  <text x="1040" y="25" style="font-family: 'Courier'; font-style: normal">Json</text></svg>