<?xml version="1.0" encoding="UTF-8" ?>
<svg xmlns="http://www.w3.org/2000/svg" version="1.1" lang="en" width="12500" height="1250">
  <rect x="0" y="0" width="12500" height="1250" fill="white"></rect>
  <text x="15" y="130" style="font-family: 'Courier'; font-weight: bold; font-style: normal">&apos;{&apos;[5](1,1-2)</text>
  <line x1="6250" y1="105" x2="80" y2="120" stroke="black"></line>
  <text x="150" y="235" style="font-family: 'Courier'; font-weight: bold; font-style: normal">&apos;&quot;string&quot;&apos;[14](2,5-13)</text>
  <line x1="260" y1="210" x2="260" y2="225" stroke="black"></line>
  <text x="230" y="200" style="font-family: 'Courier'; font-style: normal">String</text>
  <line x1="460" y1="175" x2="260" y2="190" stroke="black"></line>
  <text x="385" y="200" style="font-family: 'Courier'; font-weight: bold; font-style: normal">&apos;:&apos;[8](2,13-14)</text>
  <line x1="460" y1="175" x2="460" y2="190" stroke="black"></line>
  <text x="540" y="270" style="font-family: 'Courier'; font-weight: bold; font-style: normal">&apos;&quot;value&quot;&apos;[14](2,15-22)</text>
  <line x1="650" y1="245" x2="650" y2="260" stroke="black"></line>
  <text x="620" y="235" style="font-family: 'Courier'; font-style: normal">String</text>
  <line x1="650" y1="210" x2="650" y2="225" stroke="black"></line>
  <text x="625" y="200" style="font-family: 'Courier'; font-style: normal">Value</text>
  <line x1="460" y1="175" x2="650" y2="190" stroke="black"></line>
  <text x="440" y="165" style="font-family: 'Courier'; font-style: normal">Pair</text>
  <line x1="6320" y1="140" x2="460" y2="155" stroke="black"></line>
  <text x="775" y="235" style="font-family: 'Courier'; font-weight: bold; font-style: normal">&apos;,&apos;[7](2,22-23)</text>
  <line x1="6560" y1="210" x2="850" y2="225" stroke="black"></line>
  <text x="935" y="305" style="font-family: 'Courier'; font-weight: bold; font-style: normal">&apos;&quot;bool1&quot;&apos;[14](3,5-12)</text>
  <line x1="1040" y1="280" x2="1040" y2="295" stroke="black"></line>
  <text x="1010" y="270" style="font-family: 'Courier'; font-style: normal">String</text>
  <line x1="1220" y1="245" x2="1040" y2="260" stroke="black"></line>
  <text x="1155" y="270" style="font-family: 'Courier'; font-weight: bold; font-style: normal">&apos;:&apos;[8](3,12-13)</text>
  <line x1="1220" y1="245" x2="1230" y2="260" stroke="black"></line>
  <text x="1315" y="305" style="font-family: 'Courier'; font-weight: bold; font-style: normal">&apos;true&apos;[11](3,14-18)</text>
  <line x1="1410" y1="280" x2="1410" y2="295" stroke="black"></line>
  <text x="1385" y="270" style="font-family: 'Courier'; font-style: normal">Value</text>
  <line x1="1220" y1="245" x2="1410" y2="260" stroke="black"></line>
  <text x="1200" y="235" style="font-family: 'Courier'; font-style: normal">Pair</text>
  <line x1="6560" y1="210" x2="1220" y2="225" stroke="black"></line>
  <text x="1515" y="305" style="font-family: 'Courier'; font-weight: bold; font-style: normal">&apos;,&apos;[7](3,18-19)</text>
  <line x1="6930" y1="280" x2="1590" y2="295" stroke="black"></line>
  <text x="1675" y="375" style="font-family: 'Courier'; font-weight: bold; font-style: normal">&apos;&quot;bool2&quot;&apos;[14](4,5-12)</text>
  <line x1="1780" y1="350" x2="1780" y2="365" stroke="black"></line>
  <text x="1750" y="340" style="font-family: 'Courier'; font-style: normal">String</text>
  <line x1="1960" y1="315" x2="1780" y2="330" stroke="black"></line>
  <text x="1895" y="340" style="font-family: 'Courier'; font-weight: bold; font-style: normal">&apos;:&apos;[8](4,12-13)</text>
  <line x1="1960" y1="315" x2="1970" y2="330" stroke="black"></line>
  <text x="2050" y="375" style="font-family: 'Courier'; font-weight: bold; font-style: normal">&apos;false&apos;[12](4,14-19)</text>
  <line x1="2150" y1="350" x2="2150" y2="365" stroke="black"></line>
  <text x="2125" y="340" style="font-family: 'Courier'; font-style: normal">Value</text>
  <line x1="1960" y1="315" x2="2150" y2="330" stroke="black"></line>
  <text x="1940" y="305" style="font-family: 'Courier'; font-style: normal">Pair</text>
  <line x1="6930" y1="280" x2="1960" y2="295" stroke="black"></line>
  <text x="2265" y="375" style="font-family: 'Courier'; font-weight: bold; font-style: normal">&apos;,&apos;[7](4,19-20)</text>
  <line x1="7300" y1="350" x2="2340" y2="365" stroke="black"></line>
  <text x="2420" y="445" style="font-family: 'Courier'; font-weight: bold; font-style: normal">&apos;&quot;number&quot;&apos;[14](5,5-13)</text>
  <line x1="2530" y1="420" x2="2530" y2="435" stroke="black"></line>
  <text x="2500" y="410" style="font-family: 'Courier'; font-style: normal">String</text>
  <line x1="2700" y1="385" x2="2530" y2="400" stroke="black"></line>
  <text x="2655" y="410" style="font-family: 'Courier'; font-weight: bold; font-style: normal">&apos;:&apos;[8](5,13-14)</text>
  <line x1="2700" y1="385" x2="2730" y2="400" stroke="black"></line>
  <text x="2810" y="480" style="font-family: 'Courier'; font-weight: bold; font-style: normal">&apos;0&apos;[15](5,15-16)</text>
  <line x1="2890" y1="455" x2="2890" y2="470" stroke="black"></line>
  <text x="2860" y="445" style="font-family: 'Courier'; font-style: normal">Number</text>
  <line x1="2890" y1="420" x2="2890" y2="435" stroke="black"></line>
  <text x="2865" y="410" style="font-family: 'Courier'; font-style: normal">Value</text>
  <line x1="2700" y1="385" x2="2890" y2="400" stroke="black"></line>
  <text x="2680" y="375" style="font-family: 'Courier'; font-style: normal">Pair</text>
  <line x1="7300" y1="350" x2="2700" y2="365" stroke="black"></line>
  <text x="2985" y="445" style="font-family: 'Courier'; font-weight: bold; font-style: normal">&apos;,&apos;[7](5,16-17)</text>
  <line x1="7660" y1="420" x2="3060" y2="435" stroke="black"></line>
  <text x="3140" y="515" style="font-family: 'Courier'; font-weight: bold; font-style: normal">&apos;&quot;null&quot;&apos;[14](6,5-11)</text>
  <line x1="3240" y1="490" x2="3240" y2="505" stroke="black"></line>
  <text x="3210" y="480" style="font-family: 'Courier'; font-style: normal">String</text>
  <line x1="3420" y1="455" x2="3240" y2="470" stroke="black"></line>
  <text x="3355" y="480" style="font-family: 'Courier'; font-weight: bold; font-style: normal">&apos;:&apos;[8](6,11-12)</text>
  <line x1="3420" y1="455" x2="3430" y2="470" stroke="black"></line>
  <text x="3515" y="515" style="font-family: 'Courier'; font-weight: bold; font-style: normal">&apos;null&apos;[13](6,13-17)</text>
  <line x1="3610" y1="490" x2="3610" y2="505" stroke="black"></line>
  <text x="3585" y="480" style="font-family: 'Courier'; font-style: normal">Value</text>
  <line x1="3420" y1="455" x2="3610" y2="470" stroke="black"></line>
  <text x="3400" y="445" style="font-family: 'Courier'; font-style: normal">Pair</text>
  <line x1="7660" y1="420" x2="3420" y2="435" stroke="black"></line>
  <text x="3715" y="515" style="font-family: 'Courier'; font-weight: bold; font-style: normal">&apos;,&apos;[7](6,17-18)</text>
  <line x1="8030" y1="490" x2="3790" y2="505" stroke="black"></line>
  <text x="3870" y="585" style="font-family: 'Courier'; font-weight: bold; font-style: normal">&apos;&quot;object&quot;&apos;[14](7,5-13)</text>
  <line x1="3980" y1="560" x2="3980" y2="575" stroke="black"></line>
  <text x="3950" y="550" style="font-family: 'Courier'; font-style: normal">String</text>
  <line x1="6980" y1="525" x2="3980" y2="540" stroke="black"></line>
  <text x="4105" y="550" style="font-family: 'Courier'; font-weight: bold; font-style: normal">&apos;:&apos;[8](7,13-14)</text>
  <line x1="6980" y1="525" x2="4180" y2="540" stroke="black"></line>
  <text x="4265" y="620" style="font-family: 'Courier'; font-weight: bold; font-style: normal">&apos;{&apos;[5](7,15-16)</text>
  <line x1="7170" y1="595" x2="4340" y2="610" stroke="black"></line>
  <text x="4425" y="725" style="font-family: 'Courier'; font-weight: bold; font-style: normal">&apos;&quot;string_member&quot;&apos;[14](8,9-24)</text>
  <line x1="4570" y1="700" x2="4570" y2="715" stroke="black"></line>
  <text x="4540" y="690" style="font-family: 'Courier'; font-style: normal">String</text>
  <line x1="4760" y1="665" x2="4570" y2="680" stroke="black"></line>
  <text x="4725" y="690" style="font-family: 'Courier'; font-weight: bold; font-style: normal">&apos;:&apos;[8](8,24-25)</text>
  <line x1="4760" y1="665" x2="4800" y2="680" stroke="black"></line>
  <text x="4880" y="760" style="font-family: 'Courier'; font-weight: bold; font-style: normal">&apos;&quot;value&quot;&apos;[14](8,26-33)</text>
  <line x1="4990" y1="735" x2="4990" y2="750" stroke="black"></line>
  <text x="4960" y="725" style="font-family: 'Courier'; font-style: normal">String</text>
  <line x1="4990" y1="700" x2="4990" y2="715" stroke="black"></line>
  <text x="4965" y="690" style="font-family: 'Courier'; font-style: normal">Value</text>
  <line x1="4760" y1="665" x2="4990" y2="680" stroke="black"></line>
  <text x="4740" y="655" style="font-family: 'Courier'; font-style: normal">Pair</text>
  <line x1="7250" y1="630" x2="4760" y2="645" stroke="black"></line>
  <text x="5115" y="725" style="font-family: 'Courier'; font-weight: bold; font-style: normal">&apos;,&apos;[7](8,33-34)</text>
  <line x1="7520" y1="700" x2="5190" y2="715" stroke="black"></line>
  <text x="5275" y="795" style="font-family: 'Courier'; font-weight: bold; font-style: normal">&apos;&quot;bool_member&quot;&apos;[14](9,9-22)</text>
  <line x1="5410" y1="770" x2="5410" y2="785" stroke="black"></line>
  <text x="5380" y="760" style="font-family: 'Courier'; font-style: normal">String</text>
  <line x1="5590" y1="735" x2="5410" y2="750" stroke="black"></line>
  <text x="5555" y="760" style="font-family: 'Courier'; font-weight: bold; font-style: normal">&apos;:&apos;[8](9,22-23)</text>
  <line x1="5590" y1="735" x2="5630" y2="750" stroke="black"></line>
  <text x="5715" y="795" style="font-family: 'Courier'; font-weight: bold; font-style: normal">&apos;true&apos;[11](9,24-28)</text>
  <line x1="5810" y1="770" x2="5810" y2="785" stroke="black"></line>
  <text x="5785" y="760" style="font-family: 'Courier'; font-style: normal">Value</text>
  <line x1="5590" y1="735" x2="5810" y2="750" stroke="black"></line>
  <text x="5570" y="725" style="font-family: 'Courier'; font-style: normal">Pair</text>
  <line x1="7520" y1="700" x2="5590" y2="715" stroke="black"></line>
  <text x="5915" y="795" style="font-family: 'Courier'; font-weight: bold; font-style: normal">&apos;,&apos;[7](9,28-29)</text>
  <line x1="7920" y1="770" x2="5990" y2="785" stroke="black"></line>
  <text x="6070" y="865" style="font-family: 'Courier'; font-weight: bold; font-style: normal">&apos;&quot;number_member&quot;&apos;[14](10,9-24)</text>
  <line x1="6220" y1="840" x2="6220" y2="855" stroke="black"></line>
  <text x="6190" y="830" style="font-family: 'Courier'; font-style: normal">String</text>
  <line x1="6400" y1="805" x2="6220" y2="820" stroke="black"></line>
  <text x="6380" y="830" style="font-family: 'Courier'; font-weight: bold; font-style: normal">&apos;:&apos;[8](10,24-25)</text>
  <line x1="6400" y1="805" x2="6460" y2="820" stroke="black"></line>
  <text x="6555" y="900" style="font-family: 'Courier'; font-weight: bold; font-style: normal">&apos;0&apos;[15](10,26-27)</text>
  <line x1="6640" y1="875" x2="6640" y2="890" stroke="black"></line>
  <text x="6610" y="865" style="font-family: 'Courier'; font-style: normal">Number</text>
  <line x1="6640" y1="840" x2="6640" y2="855" stroke="black"></line>
  <text x="6615" y="830" style="font-family: 'Courier'; font-style: normal">Value</text>
  <line x1="6400" y1="805" x2="6640" y2="820" stroke="black"></line>
  <text x="6380" y="795" style="font-family: 'Courier'; font-style: normal">Pair</text>
  <line x1="7920" y1="770" x2="6400" y2="785" stroke="black"></line>
  <text x="6730" y="865" style="font-family: 'Courier'; font-weight: bold; font-style: normal">&apos;,&apos;[7](10,27-28)</text>
  <line x1="8330" y1="840" x2="6810" y2="855" stroke="black"></line>
  <text x="6905" y="935" style="font-family: 'Courier'; font-weight: bold; font-style: normal">&apos;&quot;array_member&quot;&apos;[14](11,9-23)</text>
  <line x1="7050" y1="910" x2="7050" y2="925" stroke="black"></line>
  <text x="7020" y="900" style="font-family: 'Courier'; font-style: normal">String</text>
  <line x1="7910" y1="875" x2="7050" y2="890" stroke="black"></line>
  <text x="7200" y="900" style="font-family: 'Courier'; font-weight: bold; font-style: normal">&apos;:&apos;[8](11,23-24)</text>
  <line x1="7910" y1="875" x2="7280" y2="890" stroke="black"></line>
  <text x="7370" y="970" style="font-family: 'Courier'; font-weight: bold; font-style: normal">&apos;[&apos;[9](11,25-26)</text>
  <line x1="8150" y1="945" x2="7450" y2="960" stroke="black"></line>
  <text x="7545" y="1075" style="font-family: 'Courier'; font-weight: bold; font-style: normal">&apos;&quot;item0&quot;&apos;[14](12,13-20)</text>
  <line x1="7660" y1="1050" x2="7660" y2="1065" stroke="black"></line>
  <text x="7630" y="1040" style="font-family: 'Courier'; font-style: normal">String</text>
  <line x1="7660" y1="1015" x2="7660" y2="1030" stroke="black"></line>
  <text x="7635" y="1005" style="font-family: 'Courier'; font-style: normal">Value</text>
  <line x1="8230" y1="980" x2="7660" y2="995" stroke="black"></line>
  <text x="7780" y="1075" style="font-family: 'Courier'; font-weight: bold; font-style: normal">&apos;,&apos;[7](12,20-21)</text>
  <line x1="8270" y1="1050" x2="7860" y2="1065" stroke="black"></line>
  <text x="7955" y="1145" style="font-family: 'Courier'; font-weight: bold; font-style: normal">&apos;&quot;item1&quot;&apos;[14](12,22-29)</text>
  <line x1="8070" y1="1120" x2="8070" y2="1135" stroke="black"></line>
  <text x="8040" y="1110" style="font-family: 'Courier'; font-style: normal">String</text>
  <line x1="8070" y1="1085" x2="8070" y2="1100" stroke="black"></line>
  <text x="8045" y="1075" style="font-family: 'Courier'; font-style: normal">Value</text>
  <line x1="8270" y1="1050" x2="8070" y2="1065" stroke="black"></line>
  <text x="8190" y="1145" style="font-family: 'Courier'; font-weight: bold; font-style: normal">&apos;,&apos;[7](12,29-30)</text>
  <line x1="8470" y1="1120" x2="8270" y2="1135" stroke="black"></line>
  <text x="8365" y="1215" style="font-family: 'Courier'; font-weight: bold; font-style: normal">&apos;&quot;item2&quot;&apos;[14](12,31-38)</text>
  <line x1="8480" y1="1190" x2="8480" y2="1205" stroke="black"></line>
  <text x="8450" y="1180" style="font-family: 'Courier'; font-style: normal">String</text>
  <line x1="8480" y1="1155" x2="8480" y2="1170" stroke="black"></line>
  <text x="8455" y="1145" style="font-family: 'Courier'; font-style: normal">Value</text>
  <line x1="8470" y1="1120" x2="8480" y2="1135" stroke="black"></line>
  <text x="8605" y="1145" style="font-family: 'Courier'; font-style: normal">ArrayRestSuffix</text>
  <line x1="8470" y1="1120" x2="8680" y2="1135" stroke="black"></line>
  <text x="8425" y="1110" style="font-family: 'Courier'; font-style: normal">ArrayRest</text>
  <line x1="8470" y1="1085" x2="8470" y2="1100" stroke="black"></line>
  <text x="8395" y="1075" style="font-family: 'Courier'; font-style: normal">ArrayRestSuffix</text>
  <line x1="8270" y1="1050" x2="8470" y2="1065" stroke="black"></line>
  <text x="8225" y="1040" style="font-family: 'Courier'; font-style: normal">ArrayRest</text>
  <line x1="8350" y1="1015" x2="8270" y2="1030" stroke="black"></line>
  <text x="8760" y="1040" style="font-family: 'Courier'; font-weight: bold; font-style: normal">&apos;]&apos;[10](13,9-10)</text>
  <line x1="8350" y1="1015" x2="8840" y2="1030" stroke="black"></line>
  <text x="8295" y="1005" style="font-family: 'Courier'; font-style: normal">ArraySuffix</text>
  <line x1="8230" y1="980" x2="8350" y2="995" stroke="black"></line>
  <text x="8170" y="970" style="font-family: 'Courier'; font-style: normal">ArraySuffix1</text>
  <line x1="8150" y1="945" x2="8230" y2="960" stroke="black"></line>
  <text x="8125" y="935" style="font-family: 'Courier'; font-style: normal">Array</text>
  <line x1="8150" y1="910" x2="8150" y2="925" stroke="black"></line>
  <text x="8125" y="900" style="font-family: 'Courier'; font-style: normal">Value</text>
  <line x1="7910" y1="875" x2="8150" y2="890" stroke="black"></line>
  <text x="7890" y="865" style="font-family: 'Courier'; font-style: normal">Pair</text>
  <line x1="8330" y1="840" x2="7910" y2="855" stroke="black"></line>
  <text x="8930" y="935" style="font-family: 'Courier'; font-weight: bold; font-style: normal">&apos;,&apos;[7](13,10-11)</text>
  <line x1="9430" y1="910" x2="9010" y2="925" stroke="black"></line>
  <text x="9100" y="1005" style="font-family: 'Courier'; font-weight: bold; font-style: normal">&apos;&quot;null_member&quot;&apos;[14](14,9-22)</text>
  <line x1="9240" y1="980" x2="9240" y2="995" stroke="black"></line>
  <text x="9210" y="970" style="font-family: 'Courier'; font-style: normal">String</text>
  <line x1="9430" y1="945" x2="9240" y2="960" stroke="black"></line>
  <text x="9390" y="970" style="font-family: 'Courier'; font-weight: bold; font-style: normal">&apos;:&apos;[8](14,22-23)</text>
  <line x1="9430" y1="945" x2="9470" y2="960" stroke="black"></line>
  <text x="9560" y="1005" style="font-family: 'Courier'; font-weight: bold; font-style: normal">&apos;null&apos;[13](14,24-28)</text>
  <line x1="9660" y1="980" x2="9660" y2="995" stroke="black"></line>
  <text x="9635" y="970" style="font-family: 'Courier'; font-style: normal">Value</text>
  <line x1="9430" y1="945" x2="9660" y2="960" stroke="black"></line>
  <text x="9410" y="935" style="font-family: 'Courier'; font-style: normal">Pair</text>
  <line x1="9430" y1="910" x2="9430" y2="925" stroke="black"></line>
  <text x="9770" y="935" style="font-family: 'Courier'; font-style: normal">ObjectRestSuffix</text>
  <line x1="9430" y1="910" x2="9850" y2="925" stroke="black"></line>
  <text x="9380" y="900" style="font-family: 'Courier'; font-style: normal">ObjectRest</text>
  <line x1="9430" y1="875" x2="9430" y2="890" stroke="black"></line>
  <text x="9350" y="865" style="font-family: 'Courier'; font-style: normal">ObjectRestSuffix</text>
  <line x1="8330" y1="840" x2="9430" y2="855" stroke="black"></line>
  <text x="8280" y="830" style="font-family: 'Courier'; font-style: normal">ObjectRest</text>
  <line x1="8330" y1="805" x2="8330" y2="820" stroke="black"></line>
  <text x="8250" y="795" style="font-family: 'Courier'; font-style: normal">ObjectRestSuffix</text>
  <line x1="7920" y1="770" x2="8330" y2="785" stroke="black"></line>
  <text x="7870" y="760" style="font-family: 'Courier'; font-style: normal">ObjectRest</text>
  <line x1="7920" y1="735" x2="7920" y2="750" stroke="black"></line>
  <text x="7840" y="725" style="font-family: 'Courier'; font-style: normal">ObjectRestSuffix</text>
  <line x1="7520" y1="700" x2="7920" y2="715" stroke="black"></line>
  <text x="7470" y="690" style="font-family: 'Courier'; font-style: normal">ObjectRest</text>
  <line x1="7600" y1="665" x2="7520" y2="680" stroke="black"></line>
  <text x="9940" y="690" style="font-family: 'Courier'; font-weight: bold; font-style: normal">&apos;}&apos;[6](15,5-6)</text>
  <line x1="7600" y1="665" x2="10010" y2="680" stroke="black"></line>
  <text x="7540" y="655" style="font-family: 'Courier'; font-style: normal">ObjectSuffix</text>
  <line x1="7250" y1="630" x2="7600" y2="645" stroke="black"></line>
  <text x="7185" y="620" style="font-family: 'Courier'; font-style: normal">ObjectSuffix1</text>
  <line x1="7170" y1="595" x2="7250" y2="610" stroke="black"></line>
  <text x="7140" y="585" style="font-family: 'Courier'; font-style: normal">Object</text>
  <line x1="7170" y1="560" x2="7170" y2="575" stroke="black"></line>
  <text x="7145" y="550" style="font-family: 'Courier'; font-style: normal">Value</text>
  <line x1="6980" y1="525" x2="7170" y2="540" stroke="black"></line>
  <text x="6960" y="515" style="font-family: 'Courier'; font-style: normal">Pair</text>
  <line x1="8030" y1="490" x2="6980" y2="505" stroke="black"></line>
  <text x="10090" y="585" style="font-family: 'Courier'; font-weight: bold; font-style: normal">&apos;,&apos;[7](15,6-7)</text>
  <line x1="11220" y1="560" x2="10160" y2="575" stroke="black"></line>
  <text x="10240" y="655" style="font-family: 'Courier'; font-weight: bold; font-style: normal">&apos;&quot;array&quot;&apos;[14](16,5-12)</text>
  <line x1="10350" y1="630" x2="10350" y2="645" stroke="black"></line>
  <text x="10320" y="620" style="font-family: 'Courier'; font-style: normal">String</text>
  <line x1="11210" y1="595" x2="10350" y2="610" stroke="black"></line>
  <text x="10470" y="620" style="font-family: 'Courier'; font-weight: bold; font-style: normal">&apos;:&apos;[8](16,12-13)</text>
  <line x1="11210" y1="595" x2="10550" y2="610" stroke="black"></line>
  <text x="10640" y="690" style="font-family: 'Courier'; font-weight: bold; font-style: normal">&apos;[&apos;[9](16,14-15)</text>
  <line x1="11410" y1="665" x2="10720" y2="680" stroke="black"></line>
  <text x="10810" y="795" style="font-family: 'Courier'; font-weight: bold; font-style: normal">&apos;&quot;item0&quot;&apos;[14](17,9-16)</text>
  <line x1="10920" y1="770" x2="10920" y2="785" stroke="black"></line>
  <text x="10890" y="760" style="font-family: 'Courier'; font-style: normal">String</text>
  <line x1="10920" y1="735" x2="10920" y2="750" stroke="black"></line>
  <text x="10895" y="725" style="font-family: 'Courier'; font-style: normal">Value</text>
  <line x1="11490" y1="700" x2="10920" y2="715" stroke="black"></line>
  <text x="11040" y="795" style="font-family: 'Courier'; font-weight: bold; font-style: normal">&apos;,&apos;[7](17,16-17)</text>
  <line x1="11530" y1="770" x2="11120" y2="785" stroke="black"></line>
  <text x="11215" y="865" style="font-family: 'Courier'; font-weight: bold; font-style: normal">&apos;&quot;item1&quot;&apos;[14](17,18-25)</text>
  <line x1="11330" y1="840" x2="11330" y2="855" stroke="black"></line>
  <text x="11300" y="830" style="font-family: 'Courier'; font-style: normal">String</text>
  <line x1="11330" y1="805" x2="11330" y2="820" stroke="black"></line>
  <text x="11305" y="795" style="font-family: 'Courier'; font-style: normal">Value</text>
  <line x1="11530" y1="770" x2="11330" y2="785" stroke="black"></line>
  <text x="11450" y="865" style="font-family: 'Courier'; font-weight: bold; font-style: normal">&apos;,&apos;[7](17,25-26)</text>
  <line x1="11730" y1="840" x2="11530" y2="855" stroke="black"></line>
  <text x="11625" y="935" style="font-family: 'Courier'; font-weight: bold; font-style: normal">&apos;&quot;item2&quot;&apos;[14](17,27-34)</text>
  <line x1="11740" y1="910" x2="11740" y2="925" stroke="black"></line>
  <text x="11710" y="900" style="font-family: 'Courier'; font-style: normal">String</text>
  <line x1="11740" y1="875" x2="11740" y2="890" stroke="black"></line>
  <text x="11715" y="865" style="font-family: 'Courier'; font-style: normal">Value</text>
  <line x1="11730" y1="840" x2="11740" y2="855" stroke="black"></line>
  <text x="11865" y="865" style="font-family: 'Courier'; font-style: normal">ArrayRestSuffix</text>
  <line x1="11730" y1="840" x2="11940" y2="855" stroke="black"></line>
  <text x="11685" y="830" style="font-family: 'Courier'; font-style: normal">ArrayRest</text>
  <line x1="11730" y1="805" x2="11730" y2="820" stroke="black"></line>
  <text x="11655" y="795" style="font-family: 'Courier'; font-style: normal">ArrayRestSuffix</text>
  <line x1="11530" y1="770" x2="11730" y2="785" stroke="black"></line>
  <text x="11485" y="760" style="font-family: 'Courier'; font-style: normal">ArrayRest</text>
  <line x1="11610" y1="735" x2="11530" y2="750" stroke="black"></line>
  <text x="12025" y="760" style="font-family: 'Courier'; font-weight: bold; font-style: normal">&apos;]&apos;[10](18,5-6)</text>
  <line x1="11610" y1="735" x2="12100" y2="750" stroke="black"></line>
  <text x="11555" y="725" style="font-family: 'Courier'; font-style: normal">ArraySuffix</text>
  <line x1="11490" y1="700" x2="11610" y2="715" stroke="black"></line>
  <text x="11430" y="690" style="font-family: 'Courier'; font-style: normal">ArraySuffix1</text>
  <line x1="11410" y1="665" x2="11490" y2="680" stroke="black"></line>
  <text x="11385" y="655" style="font-family: 'Courier'; font-style: normal">Array</text>
  <line x1="11410" y1="630" x2="11410" y2="645" stroke="black"></line>
  <text x="11385" y="620" style="font-family: 'Courier'; font-style: normal">Value</text>
  <line x1="11210" y1="595" x2="11410" y2="610" stroke="black"></line>
  <text x="11190" y="585" style="font-family: 'Courier'; font-style: normal">Pair</text>
  <line x1="11220" y1="560" x2="11210" y2="575" stroke="black"></line>
  <text x="12180" y="585" style="font-family: 'Courier'; font-style: normal">ObjectRestSuffix</text>
  <line x1="11220" y1="560" x2="12260" y2="575" stroke="black"></line>
  <text x="11170" y="550" style="font-family: 'Courier'; font-style: normal">ObjectRest</text>
  <line x1="11220" y1="525" x2="11220" y2="540" stroke="black"></line>
  <text x="11140" y="515" style="font-family: 'Courier'; font-style: normal">ObjectRestSuffix</text>
  <line x1="8030" y1="490" x2="11220" y2="505" stroke="black"></line>
  <text x="7980" y="480" style="font-family: 'Courier'; font-style: normal">ObjectRest</text>
  <line x1="8030" y1="455" x2="8030" y2="470" stroke="black"></line>
  <text x="7950" y="445" style="font-family: 'Courier'; font-style: normal">ObjectRestSuffix</text>
  <line x1="7660" y1="420" x2="8030" y2="435" stroke="black"></line>
  <text x="7610" y="410" style="font-family: 'Courier'; font-style: normal">ObjectRest</text>
  <line x1="7660" y1="385" x2="7660" y2="400" stroke="black"></line>
  <text x="7580" y="375" style="font-family: 'Courier'; font-style: normal">ObjectRestSuffix</text>
  <line x1="7300" y1="350" x2="7660" y2="365" stroke="black"></line>
  <text x="7250" y="340" style="font-family: 'Courier'; font-style: normal">ObjectRest</text>
  <line x1="7300" y1="315" x2="7300" y2="330" stroke="black"></line>
  <text x="7220" y="305" style="font-family: 'Courier'; font-style: normal">ObjectRestSuffix</text>
  <line x1="6930" y1="280" x2="7300" y2="295" stroke="black"></line>
  <text x="6880" y="270" style="font-family: 'Courier'; font-style: normal">ObjectRest</text>
  <line x1="6930" y1="245" x2="6930" y2="260" stroke="black"></line>
  <text x="6850" y="235" style="font-family: 'Courier'; font-style: normal">ObjectRestSuffix</text>
  <line x1="6560" y1="210" x2="6930" y2="225" stroke="black"></line>
  <text x="6510" y="200" style="font-family: 'Courier'; font-style: normal">ObjectRest</text>
  <line x1="6630" y1="175" x2="6560" y2="190" stroke="black"></line>
  <text x="12350" y="200" style="font-family: 'Courier'; font-weight: bold; font-style: normal">&apos;}&apos;[6](19,1-2)</text>
  <line x1="6630" y1="175" x2="12420" y2="190" stroke="black"></line>
  <text x="6570" y="165" style="font-family: 'Courier'; font-style: normal">ObjectSuffix</text>
  <line x1="6320" y1="140" x2="6630" y2="155" stroke="black"></line>
  <text x="6255" y="130" style="font-family: 'Courier'; font-style: normal">ObjectSuffix1</text>
  <line x1="6250" y1="105" x2="6320" y2="120" stroke="black"></line>
  <text x="6220" y="95" style="font-family: 'Courier'; font-style: normal">Object</text>
  <line x1="6250" y1="70" x2="6250" y2="85" stroke="black"></line>
  <text x="6225" y="60" style="font-family: 'Courier'; font-style: normal">Value</text>
  <line x1="6250" y1="35" x2="6250" y2="50" stroke="black"></line>
  <text x="6230" y="25" style="font-family: 'Courier'; font-style: normal">Json</text></svg>