<?xml version="1.0" encoding="UTF-8" standalone="no"?>
<!DOCTYPE svg PUBLIC "-//W3C//DTD SVG 1.1//EN" "http://www.w3.org/Graphics/SVG/1.1/DTD/svg11.dtd">
<svg width="100%" height="100%" viewBox="0 0 512 512" version="1.1" xmlns="http://www.w3.org/2000/svg" xmlns:xlink="http://www.w3.org/1999/xlink" xml:space="preserve" xmlns:serif="http://www.serif.com/" style="fill-rule:evenodd;clip-rule:evenodd;stroke-linecap:round;stroke-linejoin:round;stroke-miterlimit:1.5;">
    <g transform="matrix(1.05668,0,0,1.05242,-16.6235,-15.5242)">
        <rect x="11" y="10" width="494" height="496" style="fill:none;stroke:rgb(2,244,255);stroke-width:39.51px;"/>
    </g>
    <g transform="matrix(0.975709,0,0,0.971774,4.26721,5.28226)">
        <rect x="11" y="10" width="494" height="496" style="fill:none;stroke:black;stroke-width:1.3px;"/>
    </g>
    <g transform="matrix(1.03644,0,0,1.03226,-11.4008,-10.3226)">
        <rect x="11" y="10" width="494" height="496" style="fill:none;stroke:black;stroke-width:1.4px;"/>
    </g>
    <path d="M301.051,40C354.949,40 396.606,51.829 426.023,75.486C455.44,99.143 470.149,132.16 470.149,174.537C470.149,210.743 461.611,242.32 444.537,269.269C427.463,296.217 403.189,316.891 371.714,331.291C340.24,345.691 303.109,352.891 260.32,352.891L141.046,352.891L133.594,472L40,472L58.4,40L301.051,40ZM264.64,271.429C297.966,271.429 323.68,263.817 341.783,248.594C359.886,233.371 368.937,211.566 368.937,183.177C368.937,162.606 362.046,147.177 348.263,136.891C334.48,126.606 314.629,121.463 288.709,121.463L155,121.463L146.091,271.429L264.64,271.429Z" style="fill:url(#_Linear1);stroke:black;stroke-width:1.09px;stroke-linecap:butt;stroke-miterlimit:2;"/>
    <g transform="matrix(1,0,0,1,-32.3553,65.0308)">
        <path d="M279.954,325.069L263.904,405.769L241.704,405.769L243.204,397.819C236.504,403.919 228.254,406.969 218.454,406.969C212.154,406.969 206.354,405.519 201.054,402.619C195.754,399.719 191.529,395.544 188.379,390.094C185.229,384.644 183.654,378.219 183.654,370.819C183.654,361.919 185.629,353.894 189.579,346.744C193.529,339.594 198.904,333.994 205.704,329.944C212.504,325.894 220.004,323.869 228.204,323.869C240.604,323.869 249.354,327.919 254.454,336.019L256.554,325.069L279.954,325.069ZM225.654,387.619C230.254,387.619 234.354,386.494 237.954,384.244C241.554,381.994 244.354,378.869 246.354,374.869C248.354,370.869 249.354,366.269 249.354,361.069C249.354,355.569 247.729,351.219 244.479,348.019C241.229,344.819 236.704,343.219 230.904,343.219C226.304,343.219 222.204,344.344 218.604,346.594C215.004,348.844 212.204,351.969 210.204,355.969C208.204,359.969 207.204,364.569 207.204,369.769C207.204,375.269 208.829,379.619 212.079,382.819C215.329,386.019 219.854,387.619 225.654,387.619Z" style="fill:rgb(255,0,242);fill-rule:nonzero;stroke:black;stroke-width:1.27px;stroke-linecap:butt;stroke-miterlimit:2;"/>
        <path d="M321.804,334.669C325.304,330.869 329.529,328.119 334.479,326.419C339.429,324.719 345.254,323.869 351.954,323.869L347.754,345.469C344.954,345.269 343.154,345.169 342.354,345.169C335.254,345.169 329.579,346.919 325.329,350.419C321.079,353.919 318.204,359.369 316.704,366.769L308.904,405.769L285.504,405.769L301.554,325.069L323.754,325.069L321.804,334.669Z" style="fill:rgb(255,0,242);fill-rule:nonzero;stroke:black;stroke-width:1.27px;stroke-linecap:butt;stroke-miterlimit:2;"/>
        <path d="M390.954,406.969C382.854,406.969 375.729,405.469 369.579,402.469C363.429,399.469 358.679,395.244 355.329,389.794C351.979,384.344 350.304,378.019 350.304,370.819C350.304,361.919 352.404,353.919 356.604,346.819C360.804,339.719 366.604,334.119 374.004,330.019C381.404,325.919 389.754,323.869 399.054,323.869C407.254,323.869 414.404,325.369 420.504,328.369C426.604,331.369 431.329,335.594 434.679,341.044C438.029,346.494 439.704,352.819 439.704,360.019C439.704,368.919 437.629,376.919 433.479,384.019C429.329,391.119 423.529,396.719 416.079,400.819C408.629,404.919 400.254,406.969 390.954,406.969ZM392.454,387.619C396.954,387.619 401.004,386.494 404.604,384.244C408.204,381.994 411.004,378.869 413.004,374.869C415.004,370.869 416.004,366.269 416.004,361.069C416.004,355.569 414.404,351.219 411.204,348.019C408.004,344.819 403.504,343.219 397.704,343.219C393.104,343.219 389.004,344.344 385.404,346.594C381.804,348.844 379.004,351.969 377.004,355.969C375.004,359.969 374.004,364.569 374.004,369.769C374.004,375.269 375.629,379.619 378.879,382.819C382.129,386.019 386.654,387.619 392.454,387.619Z" style="fill:rgb(255,0,242);fill-rule:nonzero;stroke:black;stroke-width:1.27px;stroke-linecap:butt;stroke-miterlimit:2;"/>
        <path d="M469.104,294.469L492.504,294.469L470.304,405.769L446.904,405.769L469.104,294.469Z" style="fill:rgb(255,0,242);fill-rule:nonzero;stroke:black;stroke-width:1.27px;stroke-linecap:butt;stroke-miterlimit:2;"/>
    </g>
    <defs>
        <linearGradient id="_Linear1" x1="0" y1="0" x2="1" y2="0" gradientUnits="userSpaceOnUse" gradientTransform="matrix(-18,432,-432,-18,58,40)"><stop offset="0" style="stop-color:rgb(0,246,255);stop-opacity:1"/><stop offset="0.52" style="stop-color:rgb(188,65,245);stop-opacity:1"/><stop offset="1" style="stop-color:rgb(255,0,242);stop-opacity:1"/></linearGradient>
    </defs>
</svg>
