<?xml version="1.0" encoding="UTF-8" standalone="no"?>
<!DOCTYPE svg PUBLIC "-//W3C//DTD SVG 1.1//EN" "http://www.w3.org/Graphics/SVG/1.1/DTD/svg11.dtd">
<svg width="100%" height="100%" viewBox="0 0 512 512" version="1.1" xmlns="http://www.w3.org/2000/svg" xmlns:xlink="http://www.w3.org/1999/xlink" xml:space="preserve" xmlns:serif="http://www.serif.com/" style="fill-rule:evenodd;clip-rule:evenodd;stroke-linecap:round;stroke-linejoin:round;stroke-miterlimit:1.5;">
    <g transform="matrix(1.05668,0,0,1.05242,-16.6235,-15.5242)">
        <rect x="11" y="10" width="494" height="496" style="fill:none;stroke:rgb(2,244,255);stroke-width:39.51px;"/>
    </g>
    <g transform="matrix(0.975709,0,0,0.971774,4.26721,5.28226)">
        <rect x="11" y="10" width="494" height="496" style="fill:none;stroke:black;stroke-width:1.3px;"/>
    </g>
    <g transform="matrix(1.03644,0,0,1.03226,-11.4008,-10.3226)">
        <rect x="11" y="10" width="494" height="496" style="fill:none;stroke:black;stroke-width:1.4px;"/>
    </g>
    <path d="M301.051,40C354.949,40 396.606,51.829 426.023,75.486C455.44,99.143 470.149,132.16 470.149,174.537C470.149,210.743 461.611,242.32 444.537,269.269C427.463,296.217 403.189,316.891 371.714,331.291C340.24,345.691 303.109,352.891 260.32,352.891L141.046,352.891L133.594,472L40,472L58.4,40L301.051,40ZM264.64,271.429C297.966,271.429 323.68,263.817 341.783,248.594C359.886,233.371 368.937,211.566 368.937,183.177C368.937,162.606 362.046,147.177 348.263,136.891C334.48,126.606 314.629,121.463 288.709,121.463L155,121.463L146.091,271.429L264.64,271.429Z" style="fill:url(#_Linear1);stroke:black;stroke-width:1.09px;stroke-linecap:butt;stroke-miterlimit:2;"/>
    <g transform="matrix(1,0,0,1,-32.3553,65.0308)">
        <text x="179.154px" y="405.769px" style="font-family:'Montserrat-BoldItalic', 'Montserrat';font-weight:700;font-style:italic;font-size:150px;fill:rgb(255,0,242);stroke:black;stroke-width:1.27px;stroke-linecap:butt;stroke-miterlimit:2;">ar<tspan x="345.954px " y="405.769px ">o</tspan>l</text>
    </g>
    <defs>
        <linearGradient id="_Linear1" x1="0" y1="0" x2="1" y2="0" gradientUnits="userSpaceOnUse" gradientTransform="matrix(-18,432,-432,-18,58,40)"><stop offset="0" style="stop-color:rgb(0,246,255);stop-opacity:1"/><stop offset="0.52" style="stop-color:rgb(188,65,245);stop-opacity:1"/><stop offset="1" style="stop-color:rgb(255,0,242);stop-opacity:1"/></linearGradient>
    </defs>
</svg>
