<?xml version="1.0" encoding="UTF-8" standalone="no"?><!DOCTYPE svg PUBLIC "-//W3C//DTD SVG 1.1//EN" "http://www.w3.org/Graphics/SVG/1.1/DTD/svg11.dtd"><svg width="100%" height="100%" viewBox="0 0 123 123" version="1.1" xmlns="http://www.w3.org/2000/svg" xmlns:xlink="http://www.w3.org/1999/xlink" xml:space="preserve" xmlns:serif="http://www.serif.com/" style="fill-rule:evenodd;clip-rule:evenodd;stroke-linejoin:round;stroke-miterlimit:2;"><path d="M72.252,9.6c12.936,0 22.933,2.839 29.993,8.517c7.061,5.677 10.591,13.601 10.591,23.772c-0,8.689 -2.049,16.268 -6.147,22.735c-4.098,6.468 -9.924,11.43 -17.478,14.886c-7.553,3.456 -16.465,5.184 -26.734,5.184l-28.626,-0l-1.788,28.586l-22.463,0l4.416,-103.68l58.236,0Zm-8.738,55.543c7.998,-0 14.169,-1.827 18.514,-5.48c4.345,-3.654 6.517,-8.887 6.517,-15.7c-0,-4.938 -1.654,-8.64 -4.962,-11.109c-3.308,-2.469 -8.072,-3.703 -14.293,-3.703l-32.09,0l-2.138,35.992l28.452,-0Z" style="fill:url(#_Linear1);stroke:#000;stroke-width:0.26px;"/><defs><linearGradient id="_Linear1" x1="0" y1="0" x2="1" y2="0" gradientUnits="userSpaceOnUse" gradientTransform="matrix(-4.32,103.68,-103.68,-4.32,13.92,9.6)"><stop offset="0" style="stop-color:#00f6ff;stop-opacity:1"/><stop offset="0.52" style="stop-color:#bc41f5;stop-opacity:1"/><stop offset="1" style="stop-color:#ff00f2;stop-opacity:1"/></linearGradient></defs></svg>