<?xml version="1.0" encoding="UTF-8" standalone="no"?>
<!DOCTYPE svg PUBLIC "-//W3C//DTD SVG 1.1//EN" "http://www.w3.org/Graphics/SVG/1.1/DTD/svg11.dtd">
<svg width="100%" height="100%" viewBox="0 0 780 450" version="1.1" xmlns="http://www.w3.org/2000/svg" xmlns:xlink="http://www.w3.org/1999/xlink" xml:space="preserve" xmlns:serif="http://www.serif.com/" style="fill-rule:evenodd;clip-rule:evenodd;stroke-linecap:round;stroke-linejoin:round;stroke-miterlimit:1.5;">
    <g id="Auto-gen" transform="matrix(1.40288,0,0,2.61628,283.381,-225)">
        <rect x="76" y="86" width="278" height="172" style="fill:rgb(235,235,235);stroke:black;stroke-width:0.48px;"/>
    </g>
    <g id="Parser" transform="matrix(1.00865,0,0,0.891089,378.732,-76.1386)">
        <rect x="31" y="467" width="347" height="101" style="fill:rgb(235,235,235);"/>
        <clipPath id="_clip1">
            <rect x="31" y="467" width="347" height="101"/>
        </clipPath>
        <g clip-path="url(#_clip1)">
            <g transform="matrix(0.991429,0,0,1.12222,17.12,84.3222)">
                <g id="Generated">
                    <rect x="293" y="412" width="71" height="19" style="fill:rgb(235,235,235);"/>
                    <g transform="matrix(1,0,0,1,0.714169,4.83117)">
                        <text x="298.222px" y="420.964px" style="font-family:'Arial-BoldItalicMT', 'Arial', sans-serif;font-weight:700;font-style:italic;font-size:12px;fill:rgb(26,50,230);">Generated</text>
                    </g>
                    <rect x="293" y="412" width="71" height="19" style="fill:none;stroke:rgb(13,40,242);stroke-width:1px;"/>
                </g>
            </g>
            <g transform="matrix(0.991429,0,0,1.01,-56.2981,14.8327)">
                <text x="190.186px" y="514.589px" style="font-family:'ArialMT', 'Arial', sans-serif;font-size:48px;">Parser</text>
            </g>
        </g>
        <rect x="31" y="467" width="347" height="101" style="fill:none;stroke:rgb(13,40,242);stroke-width:1.05px;"/>
    </g>
    <g transform="matrix(1.50437e-15,-24.5683,1,6.12323e-17,125,5346.26)">
        <path d="M204.177,463.5L204.177,470L203.77,460L204.177,450L204.177,456.5L204.593,456.5L204.593,450L205,460L204.593,470L204.593,463.5L204.177,463.5Z" style="fill:rgb(235,235,235);stroke:black;stroke-width:0.06px;"/>
    </g>
    <g id="Production-trait" serif:id="Production trait" transform="matrix(1.00865,0,0,0.693069,378.732,-83.6634)">
        <rect x="31" y="467" width="347" height="101" style="fill:rgb(235,235,235);"/>
        <clipPath id="_clip2">
            <rect x="31" y="467" width="347" height="101"/>
        </clipPath>
        <g clip-path="url(#_clip2)">
            <g id="Generated1" serif:id="Generated" transform="matrix(0.991429,0,0,1.44286,17.12,-53.8714)">
                <rect x="293" y="412" width="71" height="19" style="fill:rgb(235,235,235);"/>
                <g transform="matrix(1,0,0,1,0.714169,4.83117)">
                    <text x="298.222px" y="420.964px" style="font-family:'Arial-BoldItalicMT', 'Arial', sans-serif;font-weight:700;font-style:italic;font-size:12px;fill:rgb(26,50,230);">Generated</text>
                </g>
                <rect x="293" y="412" width="71" height="19" style="fill:none;stroke:rgb(13,40,242);stroke-width:1px;"/>
            </g>
            <g transform="matrix(0.991429,0,0,1.44286,-118.465,-94.0604)">
                <text x="185.261px" y="420.69px" style="font-family:'Arial-BoldMT', 'Arial', sans-serif;font-weight:700;font-size:12px;">Adapter Layer</text>
                <text x="269.291px" y="420.69px" style="font-family:'ArialMT', 'Arial', sans-serif;font-size:12px;">that implements the semantic actions</text>
                <text x="243.946px" y="433.082px" style="font-family:'ArialMT', 'Arial', sans-serif;font-size:12px;">for each production speciﬁcally</text>
            </g>
        </g>
        <rect x="31" y="467" width="347" height="101" style="fill:none;stroke:rgb(13,40,242);stroke-width:1.16px;"/>
    </g>
    <g transform="matrix(1.50437e-15,-24.5683,1,6.12323e-17,125,5245.39)">
        <path d="M204.177,463.5L204.177,470L203.77,460L204.177,450L204.177,456.5L204.593,456.5L204.593,450L205,460L204.593,470L204.593,463.5L204.177,463.5Z" style="fill:rgb(235,235,235);stroke:black;stroke-width:0.06px;"/>
    </g>
    <g id="Non-terminals-trait" serif:id="Non-terminals trait" transform="matrix(1.00865,0,0,0.594059,378.732,-128.523)">
        <rect x="31" y="467" width="347" height="101" style="fill:rgb(235,235,235);"/>
        <clipPath id="_clip3">
            <rect x="31" y="467" width="347" height="101"/>
        </clipPath>
        <g clip-path="url(#_clip3)">
            <g id="Generated2" serif:id="Generated" transform="matrix(0.991429,0,0,1.68333,17.12,-157.517)">
                <rect x="293" y="412" width="71" height="19" style="fill:rgb(235,235,235);"/>
                <g transform="matrix(1,0,0,1,0.714169,4.83117)">
                    <text x="298.222px" y="420.964px" style="font-family:'Arial-BoldItalicMT', 'Arial', sans-serif;font-weight:700;font-style:italic;font-size:12px;fill:rgb(26,50,230);">Generated</text>
                </g>
                <rect x="293" y="412" width="71" height="19" style="fill:none;stroke:rgb(13,40,242);stroke-width:1px;"/>
            </g>
            <g transform="matrix(0.991429,0,0,1.68333,-66.8104,-195.864)">
                <text x="135.603px" y="420.69px" style="font-family:'ArialMT', 'Arial', sans-serif;font-size:12px;">T<tspan x="142.488px 146.484px " y="420.69px 420.69px ">ra</tspan>it with</text>
                <text x="187.166px" y="420.69px" style="font-family:'Arial-BoldMT', 'Arial', sans-serif;font-weight:700;font-size:12px;">typed</text>
                <text x="222.504px" y="420.69px" style="font-family:'ArialMT', 'Arial', sans-serif;font-size:12px;">semantic actions for</text>
                <text x="332.549px" y="420.69px" style="font-family:'Arial-BoldMT', 'Arial', sans-serif;font-weight:700;font-size:12px;">non-terminals</text>
                <text x="218.387px" y="433.082px" style="font-family:'ArialMT', 'Arial', sans-serif;font-size:12px;">of the input grammar</text>
            </g>
        </g>
        <rect x="31" y="467" width="347" height="101" style="fill:none;stroke:rgb(13,40,242);stroke-width:1.21px;"/>
    </g>
    <g transform="matrix(1.50437e-15,-24.5683,1,6.12323e-17,125,5155.16)">
        <path d="M204.177,463.5L204.177,470L203.77,460L204.177,450L204.177,456.5L204.593,456.5L204.593,450L205,460L204.593,470L204.593,463.5L204.177,463.5Z" style="fill:rgb(235,235,235);stroke:black;stroke-width:0.06px;"/>
    </g>
    <g id="User-implementation" serif:id="User implementation" transform="matrix(1.00865,0,0,0.594059,378.732,-218.753)">
        <rect x="31" y="467" width="347" height="101" style="fill:rgb(235,235,235);"/>
        <clipPath id="_clip4">
            <rect x="31" y="467" width="347" height="101"/>
        </clipPath>
        <g clip-path="url(#_clip4)">
            <g transform="matrix(0.991429,0,0,1.68333,17.12,-157.517)">
                <g id="User-code" serif:id="User code">
                    <rect id="User-code1" serif:id="User code" x="293" y="412" width="71" height="19" style="fill:rgb(235,235,235);"/>
                    <g id="User-code2" serif:id="User code">
                        <g transform="matrix(1,0,0,1,0.714169,4.83117)">
                            <text x="298.887px" y="420.964px" style="font-family:'Arial-BoldItalicMT', 'Arial', sans-serif;font-weight:700;font-style:italic;font-size:12px;fill:rgb(191,64,64);">User code</text>
                        </g>
                    </g>
                    <rect id="User-code3" serif:id="User code" x="293" y="412" width="71" height="19" style="fill:none;stroke:rgb(191,64,64);stroke-width:1px;"/>
                </g>
            </g>
            <g transform="matrix(0.991429,0,0,1.68333,-66.9701,-185.557)">
                <text x="204.726px" y="420.69px" style="font-family:'ArialMT', 'Arial', sans-serif;font-size:12px;">User grammar processing</text>
            </g>
        </g>
        <rect x="31" y="467" width="347" height="101" style="fill:none;stroke:rgb(191,64,64);stroke-width:1.21px;"/>
    </g>
    <g transform="matrix(1,0,0,1,445.831,-39.0972)">
        <text x="57.56px" y="67.374px" style="font-family:'ArialMT', 'Arial', sans-serif;font-size:24px;">Auto-gen Mode</text>
    </g>
    <g id="Vanilla" transform="matrix(1.40288,0,0,2.61628,-106.619,-225)">
        <rect x="76" y="86" width="278" height="172" style="fill:rgb(235,235,235);stroke:black;stroke-width:0.48px;"/>
    </g>
    <g id="Parser1" serif:id="Parser" transform="matrix(1.00865,0,0,0.891089,-11.268,-76.1386)">
        <rect x="31" y="467" width="347" height="101" style="fill:rgb(235,235,235);"/>
        <clipPath id="_clip5">
            <rect x="31" y="467" width="347" height="101"/>
        </clipPath>
        <g clip-path="url(#_clip5)">
            <g transform="matrix(0.991429,0,0,1.12222,17.12,84.3222)">
                <g id="Generated3" serif:id="Generated">
                    <rect x="293" y="412" width="71" height="19" style="fill:rgb(235,235,235);"/>
                    <g transform="matrix(1,0,0,1,0.714169,4.83117)">
                        <text x="298.222px" y="420.964px" style="font-family:'Arial-BoldItalicMT', 'Arial', sans-serif;font-weight:700;font-style:italic;font-size:12px;fill:rgb(26,50,230);">Generated</text>
                    </g>
                    <rect x="293" y="412" width="71" height="19" style="fill:none;stroke:rgb(13,40,242);stroke-width:1px;"/>
                </g>
            </g>
            <g transform="matrix(0.991429,0,0,1.01,-56.2981,14.8327)">
                <text x="190.186px" y="514.589px" style="font-family:'ArialMT', 'Arial', sans-serif;font-size:48px;">Parser</text>
            </g>
        </g>
        <rect x="31" y="467" width="347" height="101" style="fill:none;stroke:rgb(13,40,242);stroke-width:1.05px;"/>
    </g>
    <g transform="matrix(1.50437e-15,-24.5683,1,6.12323e-17,-265,5346.26)">
        <path d="M204.177,463.5L204.177,470L203.77,460L204.177,450L204.177,456.5L204.593,456.5L204.593,450L205,460L204.593,470L204.593,463.5L204.177,463.5Z" style="fill:rgb(235,235,235);stroke:black;stroke-width:0.06px;"/>
    </g>
    <g id="Production-trait1" serif:id="Production trait" transform="matrix(1.00865,0,0,0.693069,-11.268,-83.6634)">
        <rect x="31" y="467" width="347" height="101" style="fill:rgb(235,235,235);"/>
        <clipPath id="_clip6">
            <rect x="31" y="467" width="347" height="101"/>
        </clipPath>
        <g clip-path="url(#_clip6)">
            <g id="Generated4" serif:id="Generated" transform="matrix(0.991429,0,0,1.44286,17.12,-53.8714)">
                <rect x="293" y="412" width="71" height="19" style="fill:rgb(235,235,235);"/>
                <g transform="matrix(1,0,0,1,0.714169,4.83117)">
                    <text x="298.222px" y="420.964px" style="font-family:'Arial-BoldItalicMT', 'Arial', sans-serif;font-weight:700;font-style:italic;font-size:12px;fill:rgb(26,50,230);">Generated</text>
                </g>
                <rect x="293" y="412" width="71" height="19" style="fill:none;stroke:rgb(13,40,242);stroke-width:1px;"/>
            </g>
            <g transform="matrix(0.991429,0,0,1.44286,-129.854,-93.9547)">
                <text x="205.04px" y="420.69px" style="font-family:'ArialMT', 'Arial', sans-serif;font-size:12px;">T<tspan x="211.925px 215.921px " y="420.69px 420.69px ">ra</tspan>it with</text>
                <text x="256.602px" y="420.69px" style="font-family:'Arial-BoldMT', 'Arial', sans-serif;font-weight:700;font-size:12px;">semantic actions for each production</text>
                <text x="268.802px" y="433.082px" style="font-family:'ArialMT', 'Arial', sans-serif;font-size:12px;">of the expanded grammar</text>
            </g>
        </g>
        <rect x="31" y="467" width="347" height="101" style="fill:none;stroke:rgb(13,40,242);stroke-width:1.16px;"/>
    </g>
    <g transform="matrix(1.50437e-15,-24.5683,1,6.12323e-17,-265,5246.49)">
        <path d="M204.177,463.5L204.177,470L203.77,460L204.177,450L204.177,456.5L204.593,456.5L204.593,450L205,460L204.593,470L204.593,463.5L204.177,463.5Z" style="fill:rgb(235,235,235);stroke:black;stroke-width:0.06px;"/>
    </g>
    <g id="User-implementation1" serif:id="User implementation" transform="matrix(1.00865,0,0,0.594059,-11.268,-127.426)">
        <rect x="31" y="467" width="347" height="101" style="fill:rgb(235,235,235);"/>
        <clipPath id="_clip7">
            <rect x="31" y="467" width="347" height="101"/>
        </clipPath>
        <g clip-path="url(#_clip7)">
            <g transform="matrix(0.991429,0,0,1.68333,17.12,-157.517)">
                <g id="User-code4" serif:id="User code">
                    <rect id="User-code5" serif:id="User code" x="293" y="412" width="71" height="19" style="fill:rgb(235,235,235);"/>
                    <g id="User-code6" serif:id="User code">
                        <g transform="matrix(1,0,0,1,0.714169,4.83117)">
                            <text x="298.887px" y="420.964px" style="font-family:'Arial-BoldItalicMT', 'Arial', sans-serif;font-weight:700;font-style:italic;font-size:12px;fill:rgb(191,64,64);">User code</text>
                        </g>
                    </g>
                    <rect id="User-code7" serif:id="User code" x="293" y="412" width="71" height="19" style="fill:none;stroke:rgb(191,64,64);stroke-width:1px;"/>
                </g>
            </g>
            <g transform="matrix(0.991429,0,0,1.68333,-66.9701,-185.557)">
                <text x="204.726px" y="420.69px" style="font-family:'ArialMT', 'Arial', sans-serif;font-size:12px;">User grammar processing</text>
            </g>
        </g>
        <rect x="31" y="467" width="347" height="101" style="fill:none;stroke:rgb(191,64,64);stroke-width:1.21px;"/>
    </g>
    <g transform="matrix(1,0,0,1,55.8309,-38)">
        <text x="57.56px" y="67.374px" style="font-family:'ArialMT', 'Arial', sans-serif;font-size:24px;">V<tspan x="71.786px 85.134px " y="67.374px 67.374px ">an</tspan>illa Mode</text>
    </g>
</svg>
